<?xml version="1.0" encoding="UTF-8"?>
<svg id="Layer_2" data-name="Layer 2" xmlns="http://www.w3.org/2000/svg" width="256" height="267.26" xmlns:xlink="http://www.w3.org/1999/xlink" viewBox="0 0 256 267.26">
  <defs>
    <style>
      .cls-1 {
        fill: url(#radial-gradient-7);
      }

      .cls-2 {
        fill: url(#radial-gradient-6);
      }

      .cls-3 {
        fill: url(#radial-gradient-5);
      }

      .cls-4 {
        fill: url(#radial-gradient-4);
      }

      .cls-5 {
        fill: url(#radial-gradient-9);
      }

      .cls-6 {
        fill: url(#radial-gradient-8);
      }

      .cls-7 {
        fill: url(#radial-gradient-3);
      }

      .cls-8 {
        fill: url(#radial-gradient-2);
      }

      .cls-9 {
        fill: url(#linear-gradient-8);
      }

      .cls-10 {
        fill: url(#linear-gradient-7);
      }

      .cls-11 {
        fill: url(#linear-gradient-5);
      }

      .cls-12 {
        fill: url(#linear-gradient-6);
      }

      .cls-13 {
        fill: url(#linear-gradient-4);
      }

      .cls-14 {
        fill: url(#linear-gradient-3);
      }

      .cls-15 {
        fill: url(#linear-gradient-2);
      }

      .cls-16 {
        fill: url(#radial-gradient);
      }

      .cls-17 {
        fill: url(#linear-gradient);
      }

      .cls-18 {
        fill: url(#radial-gradient-12);
      }

      .cls-19 {
        fill: url(#radial-gradient-10);
      }

      .cls-20 {
        fill: url(#radial-gradient-11);
      }
    </style>
    <linearGradient id="linear-gradient" x1="101.21" y1="14.49" x2="151.83" y2="258.25" gradientUnits="userSpaceOnUse">
      <stop offset="0" stop-color="#119ef0"/>
      <stop offset=".34" stop-color="#348bf6"/>
      <stop offset=".83" stop-color="#0f3f99"/>
    </linearGradient>
    <radialGradient id="radial-gradient" cx="-15.51" cy="123.25" fx="-15.51" fy="123.25" r="267.85" gradientTransform="translate(0 -4.48) scale(.84)" gradientUnits="userSpaceOnUse">
      <stop offset=".13" stop-color="#00e4ff"/>
      <stop offset=".25" stop-color="#1ed1fc"/>
      <stop offset=".52" stop-color="#6ba4f6"/>
      <stop offset="1" stop-color="#005ad2" stop-opacity="0"/>
    </radialGradient>
    <radialGradient id="radial-gradient-2" cx="21.19" cy="99.36" fx="21.19" fy="99.36" r="162.6" gradientTransform="translate(0 -4.48) scale(.84)" gradientUnits="userSpaceOnUse">
      <stop offset="0" stop-color="#11aef0"/>
      <stop offset=".35" stop-color="#11a4f0" stop-opacity=".43"/>
      <stop offset=".62" stop-color="#119ef0" stop-opacity="0"/>
      <stop offset="1" stop-color="#6ba4f6" stop-opacity="0"/>
    </radialGradient>
    <radialGradient id="radial-gradient-3" cx="208.35" cy="138.71" fx="208.35" fy="138.71" r="267.85" gradientTransform="translate(0 -4.48) scale(.84)" gradientUnits="userSpaceOnUse">
      <stop offset=".14" stop-color="#00e4ff"/>
      <stop offset=".21" stop-color="#0bd0f6" stop-opacity=".91"/>
      <stop offset=".34" stop-color="#2aa0e1" stop-opacity=".68"/>
      <stop offset=".44" stop-color="#417cd1" stop-opacity=".5"/>
      <stop offset=".61" stop-color="#1142a8" stop-opacity="0"/>
    </radialGradient>
    <linearGradient id="linear-gradient-2" x1="92.96" y1="197.95" x2="133.2" y2="1.91" gradientUnits="userSpaceOnUse">
      <stop offset="0" stop-color="#ff4070"/>
      <stop offset=".16" stop-color="#1142a8"/>
      <stop offset=".42" stop-color="#1c4dc2"/>
      <stop offset=".97" stop-color="#3364f6"/>
    </linearGradient>
    <radialGradient id="radial-gradient-4" cx="116.95" cy="201.96" fx="116.95" fy="201.96" r="116.01" gradientTransform="translate(0 -4.48) scale(.84)" gradientUnits="userSpaceOnUse">
      <stop offset="0" stop-color="#ff4070"/>
      <stop offset=".63" stop-color="#ff4070" stop-opacity="0"/>
    </radialGradient>
    <radialGradient id="radial-gradient-5" cx="236.09" cy="78.61" fx="236.09" fy="78.61" r="224.44" gradientTransform="translate(0 -4.48) scale(.84)" gradientUnits="userSpaceOnUse">
      <stop offset="0" stop-color="#00b3ed"/>
      <stop offset="1" stop-color="#3364f6" stop-opacity="0"/>
    </radialGradient>
    <linearGradient id="linear-gradient-3" x1="120.97" y1="188.53" x2="32.98" y2="40.64" gradientUnits="userSpaceOnUse">
      <stop offset=".32" stop-color="#1142ad"/>
      <stop offset=".54" stop-color="#1f60cb"/>
      <stop offset=".83" stop-color="#348bf6"/>
    </linearGradient>
    <radialGradient id="radial-gradient-6" cx="74.6" cy="132.8" fx="74.6" fy="132.8" r="209.21" gradientTransform="translate(0 -4.48) scale(.84)" gradientUnits="userSpaceOnUse">
      <stop offset="0" stop-color="#119ef0" stop-opacity=".6"/>
      <stop offset=".47" stop-color="#1c52c2" stop-opacity="0"/>
    </radialGradient>
    <radialGradient id="radial-gradient-7" cx="100.08" cy="176.3" fx="100.08" fy="176.3" r="209.21" gradientTransform="translate(0 -4.48) scale(.84)" gradientUnits="userSpaceOnUse">
      <stop offset="0" stop-color="#119ef0" stop-opacity=".6"/>
      <stop offset=".48" stop-color="#1c52c2" stop-opacity="0"/>
    </radialGradient>
    <linearGradient id="linear-gradient-4" x1="59.14" y1="4.86" x2="76.73" y2="86.38" gradientUnits="userSpaceOnUse">
      <stop offset=".23" stop-color="#348bf6"/>
      <stop offset="1" stop-color="#005ad2" stop-opacity="0"/>
    </linearGradient>
    <linearGradient id="linear-gradient-5" x1="177.48" y1="227.16" x2="63.08" y2="36.71" gradientUnits="userSpaceOnUse">
      <stop offset=".28" stop-color="#1142a8"/>
      <stop offset=".5" stop-color="#1c59c0"/>
      <stop offset=".89" stop-color="#348bf6"/>
      <stop offset="1" stop-color="#119ef0"/>
    </linearGradient>
    <linearGradient id="linear-gradient-6" x1="66.31" y1="93.15" x2="252.21" y2="253.97" gradientUnits="userSpaceOnUse">
      <stop offset=".42" stop-color="#1c52c2" stop-opacity="0"/>
      <stop offset=".47" stop-color="#1b54c3" stop-opacity=".03"/>
      <stop offset=".54" stop-color="#195cc6" stop-opacity=".11"/>
      <stop offset=".63" stop-color="#1568cb" stop-opacity=".23"/>
      <stop offset=".73" stop-color="#1079d3" stop-opacity=".41"/>
      <stop offset=".83" stop-color="#0a8fdd" stop-opacity=".64"/>
      <stop offset=".94" stop-color="#02aae9" stop-opacity=".91"/>
      <stop offset=".97" stop-color="#00b3ed"/>
    </linearGradient>
    <linearGradient id="linear-gradient-7" x1="5.55" y1="127.39" x2="281.97" y2="133.6" gradientUnits="userSpaceOnUse">
      <stop offset=".44" stop-color="#1c52c2" stop-opacity="0"/>
      <stop offset=".54" stop-color="#1763c9" stop-opacity=".18"/>
      <stop offset=".78" stop-color="#0a8edc" stop-opacity=".62"/>
      <stop offset=".97" stop-color="#00b3ed"/>
    </linearGradient>
    <radialGradient id="radial-gradient-8" cx="129.58" cy="154.72" fx="129.58" fy="154.72" r="140.67" gradientTransform="translate(0 -4.48) scale(.84)" gradientUnits="userSpaceOnUse">
      <stop offset="0" stop-color="#119ef0"/>
      <stop offset=".28" stop-color="#119ef0" stop-opacity=".66"/>
      <stop offset=".53" stop-color="#119ef0" stop-opacity=".38"/>
      <stop offset=".74" stop-color="#119ef0" stop-opacity=".17"/>
      <stop offset=".9" stop-color="#119ef0" stop-opacity=".05"/>
      <stop offset=".99" stop-color="#119ef0" stop-opacity="0"/>
    </radialGradient>
    <radialGradient id="radial-gradient-9" cx="22.06" cy="136.48" fx="22.06" fy="136.48" r="129.9" gradientTransform="translate(0 -4.48) scale(.84)" gradientUnits="userSpaceOnUse">
      <stop offset="0" stop-color="#119ef0"/>
      <stop offset=".07" stop-color="#119ef0" stop-opacity=".88"/>
      <stop offset=".2" stop-color="#119ef0" stop-opacity=".65"/>
      <stop offset=".35" stop-color="#119ef0" stop-opacity=".45"/>
      <stop offset=".48" stop-color="#119ef0" stop-opacity=".29"/>
      <stop offset=".62" stop-color="#119ef0" stop-opacity=".16"/>
      <stop offset=".75" stop-color="#119ef0" stop-opacity=".07"/>
      <stop offset=".88" stop-color="#119ef0" stop-opacity=".02"/>
      <stop offset="1" stop-color="#119ef0" stop-opacity="0"/>
    </radialGradient>
    <radialGradient id="radial-gradient-10" cx="151.69" cy="140.81" fx="151.69" fy="140.81" r="140.48" gradientTransform="translate(0 -4.48) scale(.84)" gradientUnits="userSpaceOnUse">
      <stop offset="0" stop-color="#ff4070"/>
      <stop offset=".06" stop-color="#f83f76"/>
      <stop offset=".14" stop-color="#e63d86"/>
      <stop offset=".24" stop-color="#c83ba2"/>
      <stop offset=".35" stop-color="#9f37c9"/>
      <stop offset=".47" stop-color="#6b33fa"/>
      <stop offset=".48" stop-color="#63f"/>
      <stop offset=".49" stop-color="#6135fc" stop-opacity=".95"/>
      <stop offset=".65" stop-color="#394ee0" stop-opacity=".44"/>
      <stop offset=".75" stop-color="#1f5dcf" stop-opacity=".12"/>
      <stop offset=".8" stop-color="#1664c9" stop-opacity="0"/>
    </radialGradient>
    <radialGradient id="radial-gradient-11" cx="213.88" cy="28.68" fx="213.88" fy="28.68" r="135.77" gradientTransform="translate(0 -4.48) scale(.84)" gradientUnits="userSpaceOnUse">
      <stop offset="0" stop-color="#ff4070"/>
      <stop offset=".41" stop-color="#ff4070" stop-opacity=".49"/>
      <stop offset=".71" stop-color="#ff4070" stop-opacity=".14"/>
      <stop offset=".85" stop-color="#ff4070" stop-opacity="0"/>
    </radialGradient>
    <radialGradient id="radial-gradient-12" cx="146.74" cy="136.74" fx="146.74" fy="136.74" r="253.1" gradientTransform="translate(0 -4.48) scale(.84)" gradientUnits="userSpaceOnUse">
      <stop offset=".04" stop-color="#ff4070"/>
      <stop offset=".25" stop-color="#b139b8" stop-opacity=".49"/>
      <stop offset=".41" stop-color="#7b34eb" stop-opacity=".14"/>
      <stop offset=".48" stop-color="#63f" stop-opacity="0"/>
    </radialGradient>
    <linearGradient id="linear-gradient-8" x1="98.35" y1="8.71" x2="112.86" y2="78.45" gradientUnits="userSpaceOnUse">
      <stop offset=".07" stop-color="#348bf6"/>
      <stop offset=".08" stop-color="#348bf6" stop-opacity=".99"/>
      <stop offset=".33" stop-color="#348bf6" stop-opacity=".64"/>
      <stop offset=".55" stop-color="#348bf6" stop-opacity=".37"/>
      <stop offset=".73" stop-color="#348bf6" stop-opacity=".17"/>
      <stop offset=".86" stop-color="#348bf6" stop-opacity=".05"/>
      <stop offset=".94" stop-color="#348bf6" stop-opacity="0"/>
    </linearGradient>
  </defs>
  <g id="Layer_1-2" data-name="Layer 1">
    <g>
      <path class="cls-17" d="M222.93,84.86c8.73,7.17,18.55,22.99,16.12,54.28-3.21,41.35-37.09,102.39-114.29,102.19-70.17-.17-120.05-59.81-110.75-131.26C22.12,47.83,61.38,25.06,88.02,16.48c-17.2,5.53-39.41,14.79-62.11,44.8C13.57,77.66,5.32,96.79,1.86,117c-11.98,70.01,35.06,136.48,105.07,148.46,70.01,11.98,141.68-37.25,148.56-110.06,4.74-50.19-24.69-70.02-32.56-70.54Z"/>
      <path class="cls-16" d="M222.93,84.86c8.73,7.17,18.55,22.99,16.12,54.28-3.21,41.35-37.09,102.39-114.29,102.19-70.17-.17-120.05-59.81-110.75-131.26C22.12,47.83,61.38,25.06,88.02,16.48c-17.2,5.53-39.41,14.79-62.11,44.8C13.57,77.66,5.32,96.79,1.86,117c-11.98,70.01,35.06,136.48,105.07,148.46,70.01,11.98,141.68-37.25,148.56-110.06,4.74-50.19-24.69-70.02-32.56-70.54Z"/>
      <path class="cls-8" d="M222.93,84.86c8.73,7.17,18.55,22.99,16.12,54.28-3.21,41.35-37.09,102.39-114.29,102.19-70.17-.17-120.05-59.81-110.75-131.26C22.12,47.83,61.38,25.06,88.02,16.48c-17.2,5.53-39.41,14.79-62.11,44.8C13.57,77.66,5.32,96.79,1.86,117c-11.98,70.01,35.06,136.48,105.07,148.46,70.01,11.98,141.68-37.25,148.56-110.06,4.74-50.19-24.69-70.02-32.56-70.54Z"/>
      <path class="cls-7" d="M222.93,84.86c8.73,7.17,18.55,22.99,16.12,54.28-3.21,41.35-37.09,102.39-114.29,102.19-70.17-.17-120.05-59.81-110.75-131.26C22.12,47.83,61.38,25.06,88.02,16.48c-17.2,5.53-39.41,14.79-62.11,44.8C13.57,77.66,5.32,96.79,1.86,117c-11.98,70.01,35.06,136.48,105.07,148.46,70.01,11.98,141.68-37.25,148.56-110.06,4.74-50.19-24.69-70.02-32.56-70.54Z"/>
      <path class="cls-15" d="M235.23,43.54c-21.59-5.4-56.82-13.74-65.21-15.93-5.33-1.4-9.38-5.25-12.24-9.96-24.03-39.61-87.5,0-138.65-1.27-.71-.02-.78,1.06-.08,1.17,25.19,4.07,68.97-1.07,68.97-1.07,0,0-42.49,9.85-54.81,58.19-2.53,9.94-4.42,24.51-1.11,42.02,6.18,32.73,34.88,54.78,68.37,52-24.8-.07-45.66-20.58-45.66-54.85,0-49.57,41.49-66.19,63.42-69.16,33.1-4.47,83.28-1.5,116.62.86,1.29.09,1.64-1.69.39-2Z"/>
      <path class="cls-4" d="M235.23,43.54c-21.59-5.4-56.82-13.74-65.21-15.93-5.33-1.4-9.38-5.25-12.24-9.96-24.03-39.61-87.5,0-138.65-1.27-.71-.02-.78,1.06-.08,1.17,25.19,4.07,68.97-1.07,68.97-1.07,0,0-42.49,9.85-54.81,58.19-2.53,9.94-4.42,24.51-1.11,42.02,6.18,32.73,34.88,54.78,68.37,52-24.8-.07-45.66-20.58-45.66-54.85,0-49.57,41.49-66.19,63.42-69.16,33.1-4.47,83.28-1.5,116.62.86,1.29.09,1.64-1.69.39-2Z"/>
      <path class="cls-3" d="M235.23,43.54c-21.59-5.4-56.82-13.74-65.21-15.93-5.33-1.4-9.38-5.25-12.24-9.96-24.03-39.61-87.5,0-138.65-1.27-.71-.02-.78,1.06-.08,1.17,25.19,4.07,68.97-1.07,68.97-1.07,0,0-42.49,9.85-54.81,58.19-2.53,9.94-4.42,24.51-1.11,42.02,6.18,32.73,34.88,54.78,68.37,52-24.8-.07-45.66-20.58-45.66-54.85,0-49.57,41.49-66.19,63.42-69.16,33.1-4.47,83.28-1.5,116.62.86,1.29.09,1.64-1.69.39-2Z"/>
      <path class="cls-14" d="M124,125.3c18.07,13.75,7.1,42.9-23.97,43.4-88.78,1.43-91.25-127.14-12.01-152.21C49.83,27.84,18.03,63.71,21.02,113.37c2.09,34.67,19.14,78.16,77.52,82.8,33.05,2.63,47.18-14.92,51.36-25.74,14.37-37.23-20.36-52.99-25.89-45.14Z"/>
      <path class="cls-2" d="M124,125.3c18.07,13.75,7.1,42.9-23.97,43.4-88.78,1.43-91.25-127.14-12.01-152.21C49.83,27.84,18.03,63.71,21.02,113.37c2.09,34.67,19.14,78.16,77.52,82.8,33.05,2.63,47.18-14.92,51.36-25.74,14.37-37.23-20.36-52.99-25.89-45.14Z"/>
      <path class="cls-1" d="M124,125.3c18.07,13.75,7.1,42.9-23.97,43.4-88.78,1.43-91.25-127.14-12.01-152.21C49.83,27.84,18.03,63.71,21.02,113.37c2.09,34.67,19.14,78.16,77.52,82.8,33.05,2.63,47.18-14.92,51.36-25.74,14.37-37.23-20.36-52.99-25.89-45.14Z"/>
      <path class="cls-13" d="M124,125.3c18.07,13.75,7.1,42.9-23.97,43.4-88.78,1.43-91.25-127.14-12.01-152.21C49.83,27.84,18.03,63.71,21.02,113.37c2.09,34.67,19.14,78.16,77.52,82.8,33.05,2.63,47.18-14.92,51.36-25.74,14.37-37.23-20.36-52.99-25.89-45.14Z"/>
      <path class="cls-11" d="M197.67,75.28c-60.29-22.34-93.45,18.59-94.44,27.94,34.44-19.36,78.66,19.43,56.53,63-9.62,18.94-31.71,31.8-60.78,29.95-17.63-1.12-33.96-7.19-46.93-17.86-17.07-13.79-28.83-35.2-30.81-63.17-3.75-52.85,30.52-86.64,64.45-97.9.78-.26,1.55-.52,2.33-.74-8,2.26-16.83,5.96-27.72,13.04-20.39,13.48-43.05,37.69-49.41,76.92C1.4,179.56,49.45,232.69,107.49,241.56c28.58,4.18,59.45-2.09,86.83-21.65,16.34-11.67,28.82-28.02,36.62-46.52,25.45-60.38-15.2-91.42-33.27-98.12Z"/>
      <path class="cls-12" d="M197.67,75.28c-60.29-22.34-93.45,18.59-94.44,27.94,34.44-19.36,78.66,19.43,56.53,63-9.62,18.94-31.71,31.8-60.78,29.95-17.63-1.12-33.96-7.19-46.93-17.86-17.07-13.79-28.83-35.2-30.81-63.17-3.75-52.85,30.52-86.64,64.45-97.9.78-.26,1.55-.52,2.33-.74-8,2.26-16.83,5.96-27.72,13.04-20.39,13.48-43.05,37.69-49.41,76.92C1.4,179.56,49.45,232.69,107.49,241.56c28.58,4.18,59.45-2.09,86.83-21.65,16.34-11.67,28.82-28.02,36.62-46.52,25.45-60.38-15.2-91.42-33.27-98.12Z"/>
      <path class="cls-10" d="M197.67,75.28c-60.29-22.34-93.45,18.59-94.44,27.94,34.44-19.36,78.66,19.43,56.53,63-9.62,18.94-31.71,31.8-60.78,29.95-17.63-1.12-33.96-7.19-46.93-17.86-17.07-13.79-28.83-35.2-30.81-63.17-3.75-52.85,30.52-86.64,64.45-97.9.78-.26,1.55-.52,2.33-.74-8,2.26-16.83,5.96-27.72,13.04-20.39,13.48-43.05,37.69-49.41,76.92C1.4,179.56,49.45,232.69,107.49,241.56c28.58,4.18,59.45-2.09,86.83-21.65,16.34-11.67,28.82-28.02,36.62-46.52,25.45-60.38-15.2-91.42-33.27-98.12Z"/>
      <path class="cls-6" d="M197.67,75.28c-60.29-22.34-93.45,18.59-94.44,27.94,34.44-19.36,78.66,19.43,56.53,63-9.62,18.94-31.71,31.8-60.78,29.95-17.63-1.12-33.96-7.19-46.93-17.86-17.07-13.79-28.83-35.2-30.81-63.17-3.75-52.85,30.52-86.64,64.45-97.9.78-.26,1.55-.52,2.33-.74-8,2.26-16.83,5.96-27.72,13.04-20.39,13.48-43.05,37.69-49.41,76.92C1.4,179.56,49.45,232.69,107.49,241.56c28.58,4.18,59.45-2.09,86.83-21.65,16.34-11.67,28.82-28.02,36.62-46.52,25.45-60.38-15.2-91.42-33.27-98.12Z"/>
      <path class="cls-5" d="M197.67,75.28c-60.29-22.34-93.45,18.59-94.44,27.94,34.44-19.36,78.66,19.43,56.53,63-9.62,18.94-31.71,31.8-60.78,29.95-17.63-1.12-33.96-7.19-46.93-17.86-17.07-13.79-28.83-35.2-30.81-63.17-3.75-52.85,30.52-86.64,64.45-97.9.78-.26,1.55-.52,2.33-.74-8,2.26-16.83,5.96-27.72,13.04-20.39,13.48-43.05,37.69-49.41,76.92C1.4,179.56,49.45,232.69,107.49,241.56c28.58,4.18,59.45-2.09,86.83-21.65,16.34-11.67,28.82-28.02,36.62-46.52,25.45-60.38-15.2-91.42-33.27-98.12Z"/>
      <path class="cls-19" d="M124,125.3c18.07,13.75,7.1,42.9-23.97,43.4-88.78,1.43-91.25-127.14-12.01-152.21C49.83,27.84,18.03,63.71,21.02,113.37c2.09,34.67,19.14,78.16,77.52,82.8,33.05,2.63,47.18-14.92,51.36-25.74,14.37-37.23-20.36-52.99-25.89-45.14Z"/>
      <path class="cls-20" d="M197.67,75.28c-60.29-22.34-93.45,18.59-94.44,27.94,34.44-19.36,78.66,19.43,56.53,63-9.62,18.94-31.71,31.8-60.78,29.95-17.63-1.12-33.96-7.19-46.93-17.86-17.07-13.79-28.83-35.2-30.81-63.17-3.75-52.85,30.52-86.64,64.45-97.9.78-.26,1.55-.52,2.33-.74-8,2.26-16.83,5.96-27.72,13.04-20.39,13.48-43.05,37.69-49.41,76.92C1.4,179.56,49.45,232.69,107.49,241.56c28.58,4.18,59.45-2.09,86.83-21.65,16.34-11.67,28.82-28.02,36.62-46.52,25.45-60.38-15.2-91.42-33.27-98.12Z"/>
      <path class="cls-18" d="M197.67,75.28c-60.29-22.34-93.45,18.59-94.44,27.94,34.44-19.36,78.66,19.43,56.53,63-9.62,18.94-31.71,31.8-60.78,29.95-17.63-1.12-33.96-7.19-46.93-17.86-17.07-13.79-28.83-35.2-30.81-63.17-3.75-52.85,30.52-86.64,64.45-97.9.78-.26,1.55-.52,2.33-.74-8,2.26-16.83,5.96-27.72,13.04-20.39,13.48-43.05,37.69-49.41,76.92C1.4,179.56,49.45,232.69,107.49,241.56c28.58,4.18,59.45-2.09,86.83-21.65,16.34-11.67,28.82-28.02,36.62-46.52,25.45-60.38-15.2-91.42-33.27-98.12Z"/>
      <path class="cls-9" d="M197.67,75.28c-60.29-22.34-93.45,18.59-94.44,27.94,34.44-19.36,78.66,19.43,56.53,63-9.62,18.94-31.71,31.8-60.78,29.95-17.63-1.12-33.96-7.19-46.93-17.86-17.07-13.79-28.83-35.2-30.81-63.17-3.75-52.85,30.52-86.64,64.45-97.9.78-.26,1.55-.52,2.33-.74-8,2.26-16.83,5.96-27.72,13.04-20.39,13.48-43.05,37.69-49.41,76.92C1.4,179.56,49.45,232.69,107.49,241.56c28.58,4.18,59.45-2.09,86.83-21.65,16.34-11.67,28.82-28.02,36.62-46.52,25.45-60.38-15.2-91.42-33.27-98.12Z"/>
    </g>
  </g>
</svg>